# Wavefront OBJ file automatically generated by Tiled2Unity

# Vertices (Count = 121)
v 0 -1 0
v -1 -1 0
v -1 0 0
v 0 0 0
v -2 -1 0
v -2 0 0
v -3 -1 0
v -3 0 0
v -4 -1 0
v -4 0 0
v -5 -1 0
v -5 0 0
v -6 -1 0
v -6 0 0
v -7 -1 0
v -7 0 0
v -8 -1 0
v -8 0 0
v -9 -1 0
v -9 0 0
v -10 -1 0
v -10 0 0
v 0 -2 0
v -1 -2 0
v -2 -2 0
v -3 -2 0
v -4 -2 0
v -5 -2 0
v -6 -2 0
v -7 -2 0
v -8 -2 0
v -9 -2 0
v -10 -2 0
v 0 -3 0
v -1 -3 0
v -2 -3 0
v -3 -3 0
v -4 -3 0
v -5 -3 0
v -6 -3 0
v -7 -3 0
v -8 -3 0
v -9 -3 0
v -10 -3 0
v 0 -4 0
v -1 -4 0
v -2 -4 0
v -3 -4 0
v -4 -4 0
v -5 -4 0
v -6 -4 0
v -7 -4 0
v -8 -4 0
v -9 -4 0
v -10 -4 0
v 0 -5 0
v -1 -5 0
v -2 -5 0
v -3 -5 0
v -4 -5 0
v -5 -5 0
v -6 -5 0
v -7 -5 0
v -8 -5 0
v -9 -5 0
v -10 -5 0
v 0 -6 0
v -1 -6 0
v -2 -6 0
v -3 -6 0
v -4 -6 0
v -5 -6 0
v -6 -6 0
v -7 -6 0
v -8 -6 0
v -9 -6 0
v -10 -6 0
v 0 -7 0
v -1 -7 0
v -2 -7 0
v -3 -7 0
v -4 -7 0
v -5 -7 0
v -6 -7 0
v -7 -7 0
v -8 -7 0
v -9 -7 0
v -10 -7 0
v 0 -8 0
v -1 -8 0
v -2 -8 0
v -3 -8 0
v -4 -8 0
v -5 -8 0
v -6 -8 0
v -7 -8 0
v -8 -8 0
v -9 -8 0
v -10 -8 0
v 0 -9 0
v -1 -9 0
v -2 -9 0
v -3 -9 0
v -4 -9 0
v -5 -9 0
v -6 -9 0
v -7 -9 0
v -8 -9 0
v -9 -9 0
v -10 -9 0
v 0 -10 0
v -1 -10 0
v -2 -10 0
v -3 -10 0
v -4 -10 0
v -5 -10 0
v -6 -10 0
v -7 -10 0
v -8 -10 0
v -9 -10 0
v -10 -10 0

# Texture Coorindates (Count = 8)
vt 0.1667887 0.5001221
vt 0.3332113 0.5001221
vt 0.3332113 0.6248779
vt 0.1667887 0.6248779
vt 0.6667888 0.7501221
vt 0.8332112 0.7501221
vt 0.8332112 0.8748779
vt 0.6667888 0.8748779

# Normal
vn 0 0 -1

# Groups (Count = 1)
g mesh_[00]_[00]
f  1/1/1  2/2/1  3/3/1  4/4/1 
f  2/1/1  5/2/1  6/3/1  3/4/1 
f  5/1/1  7/2/1  8/3/1  6/4/1 
f  7/1/1  9/2/1  10/3/1  8/4/1 
f  9/1/1  11/2/1  12/3/1  10/4/1 
f  11/1/1  13/2/1  14/3/1  12/4/1 
f  13/1/1  15/2/1  16/3/1  14/4/1 
f  15/1/1  17/2/1  18/3/1  16/4/1 
f  17/1/1  19/2/1  20/3/1  18/4/1 
f  19/1/1  21/2/1  22/3/1  20/4/1 
f  23/1/1  24/2/1  2/3/1  1/4/1 
f  24/5/1  25/6/1  5/7/1  2/8/1 
f  25/5/1  26/6/1  7/7/1  5/8/1 
f  26/5/1  27/6/1  9/7/1  7/8/1 
f  27/5/1  28/6/1  11/7/1  9/8/1 
f  28/5/1  29/6/1  13/7/1  11/8/1 
f  29/5/1  30/6/1  15/7/1  13/8/1 
f  30/5/1  31/6/1  17/7/1  15/8/1 
f  31/5/1  32/6/1  19/7/1  17/8/1 
f  32/1/1  33/2/1  21/3/1  19/4/1 
f  34/1/1  35/2/1  24/3/1  23/4/1 
f  35/1/1  36/2/1  25/3/1  24/4/1 
f  36/1/1  37/2/1  26/3/1  25/4/1 
f  37/1/1  38/2/1  27/3/1  26/4/1 
f  38/1/1  39/2/1  28/3/1  27/4/1 
f  39/1/1  40/2/1  29/3/1  28/4/1 
f  40/1/1  41/2/1  30/3/1  29/4/1 
f  41/1/1  42/2/1  31/3/1  30/4/1 
f  42/5/1  43/6/1  32/7/1  31/8/1 
f  43/5/1  44/6/1  33/7/1  32/8/1 
f  45/1/1  46/2/1  35/3/1  34/4/1 
f  46/1/1  47/2/1  36/3/1  35/4/1 
f  47/1/1  48/2/1  37/3/1  36/4/1 
f  48/1/1  49/2/1  38/3/1  37/4/1 
f  49/1/1  50/2/1  39/3/1  38/4/1 
f  50/1/1  51/2/1  40/3/1  39/4/1 
f  51/1/1  52/2/1  41/3/1  40/4/1 
f  52/1/1  53/2/1  42/3/1  41/4/1 
f  53/1/1  54/2/1  43/3/1  42/4/1 
f  54/5/1  55/6/1  44/7/1  43/8/1 
f  56/1/1  57/2/1  46/3/1  45/4/1 
f  57/5/1  58/6/1  47/7/1  46/8/1 
f  58/1/1  59/2/1  48/3/1  47/4/1 
f  59/1/1  60/2/1  49/3/1  48/4/1 
f  60/1/1  61/2/1  50/3/1  49/4/1 
f  61/1/1  62/2/1  51/3/1  50/4/1 
f  62/1/1  63/2/1  52/3/1  51/4/1 
f  63/1/1  64/2/1  53/3/1  52/4/1 
f  64/1/1  65/2/1  54/3/1  53/4/1 
f  65/5/1  66/6/1  55/7/1  54/8/1 
f  67/1/1  68/2/1  57/3/1  56/4/1 
f  68/5/1  69/6/1  58/7/1  57/8/1 
f  69/1/1  70/2/1  59/3/1  58/4/1 
f  70/1/1  71/2/1  60/3/1  59/4/1 
f  71/1/1  72/2/1  61/3/1  60/4/1 
f  72/1/1  73/2/1  62/3/1  61/4/1 
f  73/1/1  74/2/1  63/3/1  62/4/1 
f  74/1/1  75/2/1  64/3/1  63/4/1 
f  75/1/1  76/2/1  65/3/1  64/4/1 
f  76/5/1  77/6/1  66/7/1  65/8/1 
f  78/1/1  79/2/1  68/3/1  67/4/1 
f  79/5/1  80/6/1  69/7/1  68/8/1 
f  80/1/1  81/2/1  70/3/1  69/4/1 
f  81/1/1  82/2/1  71/3/1  70/4/1 
f  82/1/1  83/2/1  72/3/1  71/4/1 
f  83/1/1  84/2/1  73/3/1  72/4/1 
f  84/1/1  85/2/1  74/3/1  73/4/1 
f  85/1/1  86/2/1  75/3/1  74/4/1 
f  86/1/1  87/2/1  76/3/1  75/4/1 
f  87/5/1  88/6/1  77/7/1  76/8/1 
f  89/1/1  90/2/1  79/3/1  78/4/1 
f  90/5/1  91/6/1  80/7/1  79/8/1 
f  91/1/1  92/2/1  81/3/1  80/4/1 
f  92/1/1  93/2/1  82/3/1  81/4/1 
f  93/1/1  94/2/1  83/3/1  82/4/1 
f  94/1/1  95/2/1  84/3/1  83/4/1 
f  95/1/1  96/2/1  85/3/1  84/4/1 
f  96/1/1  97/2/1  86/3/1  85/4/1 
f  97/1/1  98/2/1  87/3/1  86/4/1 
f  98/5/1  99/6/1  88/7/1  87/8/1 
f  100/1/1  101/2/1  90/3/1  89/4/1 
f  101/5/1  102/6/1  91/7/1  90/8/1 
f  102/1/1  103/2/1  92/3/1  91/4/1 
f  103/1/1  104/2/1  93/3/1  92/4/1 
f  104/1/1  105/2/1  94/3/1  93/4/1 
f  105/1/1  106/2/1  95/3/1  94/4/1 
f  106/1/1  107/2/1  96/3/1  95/4/1 
f  107/1/1  108/2/1  97/3/1  96/4/1 
f  108/5/1  109/6/1  98/7/1  97/8/1 
f  109/5/1  110/6/1  99/7/1  98/8/1 
f  111/1/1  112/2/1  101/3/1  100/4/1 
f  112/5/1  113/6/1  102/7/1  101/8/1 
f  113/5/1  114/6/1  103/7/1  102/8/1 
f  114/5/1  115/6/1  104/7/1  103/8/1 
f  115/5/1  116/6/1  105/7/1  104/8/1 
f  116/5/1  117/6/1  106/7/1  105/8/1 
f  117/5/1  118/6/1  107/7/1  106/8/1 
f  118/5/1  119/6/1  108/7/1  107/8/1 
f  119/5/1  120/6/1  109/7/1  108/8/1 
f  120/1/1  121/2/1  110/3/1  109/4/1 
